<?xml version="1.0" encoding="UTF-8"?>
<svg id="a" xmlns="http://www.w3.org/2000/svg" xmlns:xlink="http://www.w3.org/1999/xlink" viewBox="0 0 841.89 595.28">
  <defs>
    <style>
      .cls-1, .cls-2, .cls-3, .cls-4, .cls-5, .cls-6 {
        fill: none;
      }

      .cls-7 {
        fill: url(#_未命名漸層_257);
        opacity: .51;
      }

      .cls-8, .cls-9, .cls-10, .cls-11 {
        opacity: .6;
      }

      .cls-8, .cls-9, .cls-12, .cls-13 {
        fill: #252101;
      }

      .cls-14 {
        fill: url(#_未命名漸層_261-11);
      }

      .cls-15 {
        fill: url(#_未命名漸層_261-10);
      }

      .cls-9, .cls-12, .cls-13 {
        stroke: #252101;
      }

      .cls-9, .cls-13 {
        stroke-width: .5px;
      }

      .cls-9, .cls-13, .cls-2, .cls-3, .cls-4, .cls-5, .cls-6 {
        stroke-miterlimit: 10;
      }

      .cls-10, .cls-16 {
        fill: #ccb904;
      }

      .cls-17 {
        clip-path: url(#clippath-1);
      }

      .cls-18 {
        clip-path: url(#clippath-3);
      }

      .cls-19 {
        clip-path: url(#clippath-4);
      }

      .cls-20 {
        clip-path: url(#clippath-2);
      }

      .cls-21 {
        clip-path: url(#clippath-7);
      }

      .cls-22 {
        clip-path: url(#clippath-6);
      }

      .cls-23 {
        clip-path: url(#clippath-5);
      }

      .cls-12, .cls-24 {
        stroke-miterlimit: 10;
        stroke-width: .5px;
      }

      .cls-25 {
        fill: #fff;
      }

      .cls-2 {
        stroke: url(#_未命名漸層_258-4);
      }

      .cls-2, .cls-3, .cls-4, .cls-5 {
        stroke-width: 2px;
      }

      .cls-3 {
        stroke: url(#_未命名漸層_258-2);
      }

      .cls-4 {
        stroke: url(#_未命名漸層_258-3);
      }

      .cls-5 {
        stroke: url(#_未命名漸層_258-5);
      }

      .cls-26 {
        fill: url(#_未命名漸層_262);
      }

      .cls-27 {
        fill: url(#_未命名漸層_260);
      }

      .cls-28 {
        fill: url(#_未命名漸層_261);
      }

      .cls-29 {
        fill: url(#_未命名漸層_259);
      }

      .cls-30 {
        fill: url(#_未命名漸層_234);
      }

      .cls-31 {
        fill: url(#_未命名漸層_261-6);
      }

      .cls-32 {
        fill: url(#_未命名漸層_261-3);
      }

      .cls-33 {
        fill: url(#_未命名漸層_261-4);
      }

      .cls-34 {
        fill: url(#_未命名漸層_261-9);
      }

      .cls-35 {
        fill: url(#_未命名漸層_261-5);
      }

      .cls-36 {
        fill: url(#_未命名漸層_261-7);
      }

      .cls-37 {
        fill: url(#_未命名漸層_261-8);
      }

      .cls-38 {
        fill: url(#_未命名漸層_262-2);
      }

      .cls-39 {
        fill: url(#_未命名漸層_262-3);
      }

      .cls-40 {
        fill: url(#_未命名漸層_262-4);
      }

      .cls-41 {
        fill: url(#_未命名漸層_261-2);
      }

      .cls-42 {
        fill: url(#_未命名漸層_234-2);
      }

      .cls-43 {
        fill: url(#_未命名漸層_259-2);
      }

      .cls-44 {
        fill: url(#_未命名漸層_259-4);
      }

      .cls-45, .cls-46, .cls-47 {
        opacity: .4;
      }

      .cls-48 {
        opacity: .3;
      }

      .cls-6 {
        stroke: url(#_未命名漸層_258);
        stroke-width: 1.51px;
      }

      .cls-46 {
        fill: url(#_未命名漸層_259-3);
      }

      .cls-47 {
        fill: url(#_未命名漸層_234-3);
      }

      .cls-24 {
        fill: #002524;
        stroke: #002524;
      }

      .cls-49 {
        clip-path: url(#clippath);
      }
    </style>
    <clipPath id="clippath">
      <rect class="cls-1" x="-12.12" y="-18.58" width="865.7" height="624.08"/>
    </clipPath>
    <linearGradient id="_未命名漸層_259" data-name="未命名漸層 259" x1="-8.83" y1="294.86" x2="849.74" y2="294.86" gradientUnits="userSpaceOnUse">
      <stop offset="0" stop-color="#544c02"/>
      <stop offset=".21" stop-color="#9d9303"/>
      <stop offset="1" stop-color="#252101"/>
    </linearGradient>
    <clipPath id="clippath-1">
      <rect class="cls-29" x="-8.83" y="-12.66" width="858.57" height="615.06"/>
    </clipPath>
    <linearGradient id="_未命名漸層_260" data-name="未命名漸層 260" x1="-10.38" y1="297.64" x2="852.27" y2="297.64" gradientUnits="userSpaceOnUse">
      <stop offset="0" stop-color="#544c02"/>
      <stop offset=".21" stop-color="#9d9303"/>
      <stop offset=".84" stop-color="#3e3801"/>
      <stop offset="1" stop-color="#252101"/>
    </linearGradient>
    <linearGradient id="_未命名漸層_259-2" data-name="未命名漸層 259" x1="18.4" y1="290.45" x2="1128.47" y2="290.45" gradientTransform="translate(-165.64 46.9)" xlink:href="#_未命名漸層_259"/>
    <clipPath id="clippath-2">
      <rect class="cls-1" x="52.34" y="-23.21" width="68.13" height="68.13"/>
    </clipPath>
    <clipPath id="clippath-3">
      <rect class="cls-1" x="-15.79" y="113.06" width="68.13" height="68.13"/>
    </clipPath>
    <linearGradient id="_未命名漸層_259-3" data-name="未命名漸層 259" x1="201.27" y1="184.71" x2="1311.34" y2="184.71" gradientTransform="translate(-57.53 286.82) scale(1 .15)" xlink:href="#_未命名漸層_259"/>
    <clipPath id="clippath-4">
      <rect class="cls-1" x="793.45" y="413.67" width="68.13" height="68.13"/>
    </clipPath>
    <linearGradient id="_未命名漸層_259-4" data-name="未命名漸層 259" x1="551.43" y1="-71.97" x2="61.22" y2="1316.6" gradientTransform="translate(123.3 718.59) rotate(-90)" xlink:href="#_未命名漸層_259"/>
    <linearGradient id="_未命名漸層_258" data-name="未命名漸層 258" x1="481.14" y1="561.37" x2="849.73" y2="561.37" gradientUnits="userSpaceOnUse">
      <stop offset="0" stop-color="#544c02"/>
      <stop offset=".21" stop-color="#a29803"/>
      <stop offset=".82" stop-color="#433d01"/>
      <stop offset="1" stop-color="#252101"/>
    </linearGradient>
    <linearGradient id="_未命名漸層_258-2" data-name="未命名漸層 258" x1="631.01" y1="317.1" x2="770.01" y2="317.1" xlink:href="#_未命名漸層_258"/>
    <linearGradient id="_未命名漸層_258-3" data-name="未命名漸層 258" x1="736.45" y1="207.21" x2="830.77" y2="207.21" xlink:href="#_未命名漸層_258"/>
    <linearGradient id="_未命名漸層_258-4" data-name="未命名漸層 258" x1="688.08" y1="103.56" x2="782.41" y2="103.56" xlink:href="#_未命名漸層_258"/>
    <linearGradient id="_未命名漸層_258-5" data-name="未命名漸層 258" x1="-292.51" y1="-104.54" x2="197.18" y2="-104.54" gradientTransform="translate(13.84 -168.89) rotate(-180)" xlink:href="#_未命名漸層_258"/>
    <linearGradient id="_未命名漸層_257" data-name="未命名漸層 257" x1="-304.74" y1="702.16" x2="1370.66" y2="-219.37" gradientUnits="userSpaceOnUse">
      <stop offset=".06" stop-color="#9d9303"/>
      <stop offset=".51" stop-color="#000100" stop-opacity=".02"/>
      <stop offset=".77" stop-color="#968c03"/>
      <stop offset="1" stop-color="#676002"/>
    </linearGradient>
    <linearGradient id="_未命名漸層_261" data-name="未命名漸層 261" x1="277.59" y1="133.7" x2="671.47" y2="132.97" gradientUnits="userSpaceOnUse">
      <stop offset="0" stop-color="#000100"/>
      <stop offset=".06" stop-color="#9d8d00"/>
      <stop offset=".52" stop-color="#000100"/>
      <stop offset="1" stop-color="#252000"/>
    </linearGradient>
    <linearGradient id="_未命名漸層_261-2" data-name="未命名漸層 261" x1="277.59" y1="133.76" x2="671.47" y2="133.03" xlink:href="#_未命名漸層_261"/>
    <linearGradient id="_未命名漸層_261-3" data-name="未命名漸層 261" x1="277.59" y1="133.81" x2="671.47" y2="133.08" xlink:href="#_未命名漸層_261"/>
    <linearGradient id="_未命名漸層_261-4" data-name="未命名漸層 261" x1="277.59" y1="133.84" x2="671.47" y2="133.12" xlink:href="#_未命名漸層_261"/>
    <linearGradient id="_未命名漸層_261-5" data-name="未命名漸層 261" x1="277.59" y1="133.88" x2="671.47" y2="133.16" xlink:href="#_未命名漸層_261"/>
    <linearGradient id="_未命名漸層_261-6" data-name="未命名漸層 261" x1="277.59" y1="133.9" x2="671.47" y2="133.18" xlink:href="#_未命名漸層_261"/>
    <linearGradient id="_未命名漸層_261-7" data-name="未命名漸層 261" x1="277.59" y1="133.95" x2="671.47" y2="133.22" xlink:href="#_未命名漸層_261"/>
    <linearGradient id="_未命名漸層_261-8" data-name="未命名漸層 261" x1="277.59" y1="133.97" x2="671.47" y2="133.24" xlink:href="#_未命名漸層_261"/>
    <linearGradient id="_未命名漸層_261-9" data-name="未命名漸層 261" x1="277.59" y1="134.04" x2="671.47" y2="133.31" xlink:href="#_未命名漸層_261"/>
    <linearGradient id="_未命名漸層_261-10" data-name="未命名漸層 261" x1="277.59" y1="134.06" x2="671.47" y2="133.34" xlink:href="#_未命名漸層_261"/>
    <linearGradient id="_未命名漸層_261-11" data-name="未命名漸層 261" x1="277.59" y1="134.11" x2="671.47" y2="133.39" xlink:href="#_未命名漸層_261"/>
    <linearGradient id="_未命名漸層_262" data-name="未命名漸層 262" x1="287.12" y1="92.81" x2="610.83" y2="92.81" gradientUnits="userSpaceOnUse">
      <stop offset="0" stop-color="#000100"/>
      <stop offset=".06" stop-color="#9d8d00"/>
      <stop offset=".52" stop-color="#000100"/>
      <stop offset="1" stop-color="#252000"/>
    </linearGradient>
    <linearGradient id="_未命名漸層_262-2" data-name="未命名漸層 262" y1="94.33" y2="94.33" xlink:href="#_未命名漸層_262"/>
    <linearGradient id="_未命名漸層_262-3" data-name="未命名漸層 262" y1="98.95" x2="610.83" y2="98.95" xlink:href="#_未命名漸層_262"/>
    <linearGradient id="_未命名漸層_262-4" data-name="未命名漸層 262" y1="103.58" y2="103.58" xlink:href="#_未命名漸層_262"/>
    <clipPath id="clippath-5">
      <rect class="cls-1" x="-874.01" y="-18.58" width="865.7" height="624.08"/>
    </clipPath>
    <linearGradient id="_未命名漸層_234" data-name="未命名漸層 234" x1="-870.72" y1="294.86" x2="-12.15" y2="294.86" gradientUnits="userSpaceOnUse">
      <stop offset="0" stop-color="#005254"/>
      <stop offset=".21" stop-color="#008a9d"/>
      <stop offset="1" stop-color="#002524"/>
    </linearGradient>
    <clipPath id="clippath-6">
      <rect class="cls-30" x="-870.72" y="-12.66" width="858.57" height="615.06"/>
    </clipPath>
    <linearGradient id="_未命名漸層_234-2" data-name="未命名漸層 234" x1="-573.47" y1="916.98" x2="536.6" y2="916.98" gradientTransform="translate(-435.66 -579.64)" xlink:href="#_未命名漸層_234"/>
    <linearGradient id="_未命名漸層_234-3" data-name="未命名漸層 234" x1="-390.6" y1="4438" x2="719.47" y2="4438" gradientTransform="translate(-327.55 -339.72) scale(1 .15)" xlink:href="#_未命名漸層_234"/>
    <clipPath id="clippath-7">
      <rect class="cls-1" x="-68.44" y="413.67" width="68.13" height="68.13"/>
    </clipPath>
  </defs>
  <g class="cls-49">
    <g>
      <rect class="cls-29" x="-8.83" y="-12.66" width="858.57" height="615.06"/>
      <g class="cls-17">
        <rect class="cls-27" x="-10.38" y="-21.23" width="862.66" height="637.74" rx="42.13" ry="42.13"/>
        <rect class="cls-43" x="-147.24" y="158.43" width="1110.07" height="357.83" transform="translate(372.98 -190.76) rotate(46.63)"/>
        <g class="cls-48">
          <rect class="cls-13" x="-15.79" y="-23.21" width="68.13" height="68.13"/>
          <rect class="cls-13" x="-15.79" y="44.92" width="68.13" height="68.13"/>
          <rect class="cls-13" x="-15.79" y="113.06" width="68.13" height="68.13"/>
          <rect class="cls-16" x="52.34" y="-23.21" width="68.13" height="68.13"/>
          <path class="cls-16" d="M18.28,44.92c18.81,0,34.07-15.25,34.07-34.07H-15.79C-15.79,29.67-.54,44.92,18.28,44.92Z"/>
          <path class="cls-16" d="M18.28-23.21V44.92c18.81,0,34.07-15.25,34.07-34.07S37.09-23.21,18.28-23.21Z"/>
          <g class="cls-20">
            <g>
              <rect class="cls-12" x="-35.02" y="4.46" width="145.55" height="5.27" transform="translate(15.78 38.6) rotate(-65.75)"/>
              <rect class="cls-12" x="-26.64" y="8.23" width="145.55" height="5.27" transform="translate(17.28 48.46) rotate(-65.75)"/>
              <rect class="cls-12" x="-18.28" y="11.99" width="145.55" height="5.27" transform="translate(18.78 58.31) rotate(-65.75)"/>
              <rect class="cls-12" x="-9.9" y="15.77" width="145.55" height="5.27" transform="translate(20.27 68.17) rotate(-65.75)"/>
              <rect class="cls-12" x="-1.53" y="19.54" width="145.55" height="5.27" transform="translate(21.77 78.02) rotate(-65.75)"/>
              <rect class="cls-12" x="6.85" y="23.32" width="145.55" height="5.27" transform="translate(23.26 87.89) rotate(-65.75)"/>
              <rect class="cls-12" x="15.23" y="27.09" width="145.55" height="5.27" transform="translate(24.76 97.75) rotate(-65.75)"/>
              <rect class="cls-12" x="23.6" y="30.85" width="145.55" height="5.27" transform="translate(26.26 107.6) rotate(-65.75)"/>
              <rect class="cls-12" x="31.97" y="34.63" width="145.55" height="5.27" transform="translate(27.75 117.46) rotate(-65.75)"/>
              <rect class="cls-12" x="40.34" y="38.41" width="145.55" height="5.27" transform="translate(29.23 127.32) rotate(-65.75)"/>
              <rect class="cls-12" x="48.71" y="42.16" width="145.55" height="5.27" transform="translate(30.74 137.17) rotate(-65.75)"/>
              <rect class="cls-12" x="57.09" y="45.94" width="145.55" height="5.27" transform="translate(32.24 147.03) rotate(-65.75)"/>
            </g>
          </g>
          <rect x="52.34" y="44.92" width="68.13" height="68.13"/>
          <rect x="188.61" y="-23.21" width="68.13" height="68.13"/>
          <rect class="cls-16" x="120.48" y="-23.21" width="68.13" height="68.13"/>
          <rect class="cls-16" x="18.28" y="113.06" width="34.07" height="68.13"/>
          <rect class="cls-13" x="154.54" y="-23.21" width="34.07" height="34.07"/>
          <g class="cls-18">
            <g>
              <rect class="cls-12" x="-103.16" y="140.72" width="145.55" height="5.27" transform="translate(-148.61 56.78) rotate(-65.75)"/>
              <rect class="cls-12" x="-94.78" y="144.5" width="145.55" height="5.27" transform="translate(-147.12 66.64) rotate(-65.75)"/>
              <rect class="cls-12" x="-86.41" y="148.27" width="145.55" height="5.27" transform="translate(-145.63 76.49) rotate(-65.75)"/>
              <rect class="cls-12" x="-78.04" y="152.05" width="145.55" height="5.27" transform="translate(-144.13 86.35) rotate(-65.75)"/>
              <rect class="cls-12" x="-69.67" y="155.81" width="145.55" height="5.27" transform="translate(-142.64 96.2) rotate(-65.75)"/>
              <rect class="cls-12" x="-61.29" y="159.58" width="145.55" height="5.27" transform="translate(-141.14 106.06) rotate(-65.75)"/>
              <rect class="cls-12" x="-52.92" y="163.36" width="145.55" height="5.27" transform="translate(-139.65 115.92) rotate(-65.75)"/>
              <rect class="cls-12" x="-44.55" y="167.13" width="145.55" height="5.27" transform="translate(-138.15 125.78) rotate(-65.75)"/>
              <rect class="cls-12" x="-36.17" y="170.9" width="145.55" height="5.27" transform="translate(-136.65 135.64) rotate(-65.75)"/>
              <rect class="cls-12" x="-27.8" y="174.67" width="145.55" height="5.27" transform="translate(-135.16 145.49) rotate(-65.75)"/>
              <rect class="cls-12" x="-19.43" y="178.45" width="145.55" height="5.27" transform="translate(-133.67 155.35) rotate(-65.75)"/>
              <rect class="cls-12" x="-11.05" y="182.21" width="145.55" height="5.27" transform="translate(-132.16 165.21) rotate(-65.75)"/>
            </g>
          </g>
          <rect class="cls-13" x="120.48" y="10.86" width="34.07" height="34.07"/>
        </g>
        <rect class="cls-46" x="143.74" y="287.67" width="1110.07" height="52.71" transform="translate(447.2 -409.58) rotate(46.63)"/>
        <g class="cls-45">
          <rect class="cls-9" x="793.46" y="549.94" width="68.13" height="68.13"/>
          <rect class="cls-9" x="793.46" y="481.8" width="68.13" height="68.13"/>
          <rect class="cls-9" x="793.46" y="413.66" width="68.13" height="68.13"/>
          <rect class="cls-11" x="725.33" y="549.94" width="68.13" height="68.13"/>
          <path class="cls-10" d="M861.59,618.07v-68.13c-18.81,0-34.07,15.25-34.07,34.07s15.25,34.07,34.07,34.07h0Z"/>
          <path class="cls-10" d="M827.52,618.07v-68.13c-18.81,0-34.07,15.25-34.07,34.07s15.25,34.07,34.07,34.07h0Z"/>
          <rect class="cls-11" x="589.06" y="549.94" width="68.13" height="68.13"/>
          <rect class="cls-10" x="657.19" y="549.94" width="68.13" height="68.13"/>
          <rect class="cls-10" x="793.45" y="413.66" width="34.07" height="68.13"/>
          <rect class="cls-8" x="657.19" y="583.99" width="34.07" height="34.07"/>
          <g class="cls-11">
            <g class="cls-19">
              <g>
                <rect class="cls-12" x="828.69" y="326.33" width="5.27" height="145.55" transform="translate(126 993.15) rotate(-65.75)"/>
                <rect class="cls-12" x="824.92" y="334.7" width="5.27" height="145.55" transform="translate(116.14 994.65) rotate(-65.75)"/>
                <rect class="cls-12" x="821.15" y="343.08" width="5.27" height="145.55" transform="translate(106.28 996.15) rotate(-65.75)"/>
                <rect class="cls-12" x="817.37" y="351.45" width="5.27" height="145.55" transform="translate(96.42 997.64) rotate(-65.75)"/>
                <rect class="cls-12" x="813.6" y="359.83" width="5.27" height="145.55" transform="translate(86.56 999.14) rotate(-65.75)"/>
                <rect class="cls-12" x="809.84" y="368.2" width="5.27" height="145.55" transform="translate(76.71 1000.64) rotate(-65.75)"/>
                <rect class="cls-12" x="806.06" y="376.57" width="5.27" height="145.55" transform="translate(66.85 1002.13) rotate(-65.75)"/>
                <rect class="cls-12" x="802.29" y="384.95" width="5.27" height="145.55" transform="translate(56.99 1003.63) rotate(-65.75)"/>
                <rect class="cls-12" x="798.51" y="393.32" width="5.27" height="145.55" transform="translate(47.14 1005.12) rotate(-65.75)"/>
                <rect class="cls-12" x="794.75" y="401.69" width="5.27" height="145.55" transform="translate(37.28 1006.62) rotate(-65.75)"/>
                <rect class="cls-12" x="790.98" y="410.07" width="5.27" height="145.55" transform="translate(27.42 1008.12) rotate(-65.75)"/>
                <rect class="cls-12" x="787.2" y="418.45" width="5.27" height="145.55" transform="translate(17.56 1009.61) rotate(-65.75)"/>
              </g>
            </g>
          </g>
          <rect class="cls-8" x="691.25" y="549.93" width="34.07" height="34.07"/>
        </g>
        <rect class="cls-44" x="161.61" y="-79.25" width="518.66" height="753.77" rx="17.13" ry="17.13" transform="translate(718.59 -123.3) rotate(90)"/>
        <rect class="cls-25" x="171.61" y="-69.25" width="498.66" height="733.77" rx="7.13" ry="7.13" transform="translate(718.59 -123.3) rotate(90)"/>
      </g>
    </g>
    <polygon class="cls-6" points="757.15 402.51 573.72 402.51 482.01 561.37 573.72 720.22 757.15 720.22 848.87 561.37 757.15 402.51"/>
    <polygon class="cls-3" points="734.68 257.92 666.34 257.92 632.17 317.1 666.34 376.29 734.68 376.29 768.85 317.1 734.68 257.92"/>
    <polygon class="cls-4" points="806.61 167.36 760.6 167.36 737.6 207.21 760.6 247.05 806.61 247.05 829.62 207.21 806.61 167.36"/>
    <polygon class="cls-2" points="758.25 63.72 712.24 63.72 689.24 103.56 712.24 143.41 758.25 143.41 781.25 103.56 758.25 63.72"/>
    <polygon class="cls-5" points="-60.35 146.69 183.34 146.69 305.19 -64.35 183.34 -275.4 -60.35 -275.4 -182.19 -64.35 -60.35 146.69"/>
    <rect class="cls-7" x="-30.53" y="-11.23" width="868.34" height="647.5"/>
  </g>
  <g>
    <path class="cls-28" d="M317.29,123.8c1.59,1.54,2.48,3.28,2.65,5.24h-3.04c-.34-1.49-1.02-2.66-2.02-3.53-1.02-.87-2.43-1.3-4.27-1.3-2.23,0-4.03.8-5.4,2.4s-2.06,4.05-2.06,7.34c0,2.7.62,4.89,1.86,6.58,1.24,1.68,3.08,2.52,5.54,2.52,2.26,0,3.98-.89,5.17-2.65.63-.93,1.09-2.15,1.4-3.67h3.04c-.27,2.42-1.16,4.47-2.67,6.11-1.81,1.98-4.25,2.96-7.32,2.96-2.65,0-4.87-.81-6.67-2.43-2.37-2.15-3.55-5.46-3.55-9.94,0-3.41.89-6.19,2.67-8.37,1.92-2.36,4.58-3.55,7.96-3.55,2.88,0,5.13.77,6.71,2.31h0Z"/>
    <path class="cls-41" d="M327.68,122.12h16.73v2.82h-13.68v7h12.65v2.67h-12.65v7.82h13.92v2.75h-16.97v-23.06Z"/>
    <path class="cls-32" d="M352.38,122.12h10.48c1.73,0,3.14.26,4.27.77,2.13.98,3.19,2.8,3.19,5.45,0,1.38-.29,2.51-.85,3.39-.57.88-1.36,1.58-2.39,2.12.9.36,1.58.85,2.03,1.44.45.6.71,1.56.76,2.9l.11,3.09c.03.88.1,1.53.22,1.96.19.73.52,1.21,1.01,1.42v.52h-3.83c-.1-.2-.19-.45-.25-.77s-.11-.92-.16-1.82l-.19-3.85c-.07-1.5-.62-2.52-1.63-3.03-.58-.29-1.49-.43-2.73-.43h-6.91v9.89h-3.13v-23.06h0ZM362.52,132.69c1.42,0,2.55-.3,3.38-.88s1.24-1.64,1.24-3.17c0-1.64-.58-2.76-1.74-3.36-.62-.31-1.45-.47-2.48-.47h-7.42v7.88h7.02Z"/>
    <path class="cls-33" d="M394.59,122.12v2.75h-7.77v20.31h-3.15v-20.31h-7.77v-2.75h18.69,0Z"/>
    <path class="cls-35" d="M401.34,122.12h3.15v23.06h-3.15v-23.06Z"/>
    <path class="cls-31" d="M413.05,122.12h15.99v2.82h-12.87v7h11.32v2.75h-11.32v10.49h-3.13v-23.06Z"/>
    <path class="cls-36" d="M436.27,122.12h3.15v23.06h-3.15v-23.06Z"/>
    <path class="cls-37" d="M463.99,123.8c1.59,1.54,2.48,3.28,2.65,5.24h-3.04c-.34-1.49-1.02-2.66-2.02-3.53-1.02-.87-2.43-1.3-4.27-1.3-2.23,0-4.03.8-5.4,2.4s-2.06,4.05-2.06,7.34c0,2.7.62,4.89,1.86,6.58,1.24,1.68,3.08,2.52,5.54,2.52,2.26,0,3.98-.89,5.17-2.65.63-.93,1.09-2.15,1.41-3.67h3.04c-.27,2.42-1.16,4.47-2.67,6.11-1.81,1.98-4.25,2.96-7.32,2.96-2.65,0-4.87-.81-6.67-2.43-2.37-2.15-3.55-5.46-3.55-9.94,0-3.41.89-6.19,2.67-8.37,1.92-2.36,4.58-3.55,7.96-3.55,2.88,0,5.13.77,6.71,2.31h0Z"/>
    <path class="cls-34" d="M480.78,122.12h3.53l8.37,23.06h-3.42l-2.34-6.91h-9.12l-2.49,6.91h-3.21l8.68-23.06h0ZM485.91,135.73l-3.5-10.19-3.72,10.19h7.22Z"/>
    <path class="cls-15" d="M513.08,122.12v2.75h-7.77v20.31h-3.15v-20.31h-7.77v-2.75h18.69,0Z"/>
    <path class="cls-14" d="M519.43,122.12h16.73v2.82h-13.68v7h12.65v2.67h-12.65v7.82h13.93v2.75h-16.97v-23.06h0Z"/>
  </g>
  <g>
    <path class="cls-26" d="M440.8,90.78l-8.17-14.15c-.64-1.12-2.23-2.03-3.51-2.03h-16.34c-1.29,0-2.87.91-3.51,2.03l-8.17,14.15c-.64,1.12-.64,2.94,0,4.06l8.17,14.15c.64,1.12,2.23,2.03,3.51,2.03h16.34c1.29,0,2.87-.91,3.51-2.03l8.17-14.15c.64-1.12.64-2.94,0-4.06ZM437.52,93.5l-7.68,13.31c-.17.3-.86.7-1.21.7h-15.36c-.35,0-1.03-.4-1.21-.7l-7.68-13.31c-.17-.3-.17-1.09,0-1.39l7.68-13.31c.17-.3.86-.7,1.21-.7h15.36c.35,0,1.03.4,1.21.7l7.68,13.31c.17.3.17,1.09,0,1.39Z"/>
    <rect class="cls-38" x="408.81" y="93.04" width="12.14" height="2.58"/>
    <rect class="cls-39" x="411.19" y="97.66" width="9.76" height="2.58"/>
    <rect class="cls-40" x="413.57" y="102.29" width="7.38" height="2.58"/>
  </g>
  <g class="cls-23">
    <g>
      <rect class="cls-30" x="-870.72" y="-12.66" width="858.57" height="615.06"/>
      <g class="cls-22">
        <rect class="cls-42" x="-1009.13" y="158.43" width="1110.07" height="357.83" transform="translate(102.96 435.78) rotate(46.63)"/>
        <rect class="cls-47" x="-718.15" y="287.67" width="1110.07" height="52.71" transform="translate(177.17 216.95) rotate(46.63)"/>
        <g class="cls-45">
          <g class="cls-11">
            <g class="cls-21">
              <g>
                <rect class="cls-24" x="-33.2" y="326.33" width="5.27" height="145.55" transform="translate(-381.9 207.31) rotate(-65.75)"/>
                <rect class="cls-24" x="-36.97" y="334.7" width="5.27" height="145.55" transform="translate(-391.76 208.81) rotate(-65.75)"/>
                <rect class="cls-24" x="-40.74" y="343.08" width="5.27" height="145.55" transform="translate(-401.61 210.31) rotate(-65.75)"/>
                <rect class="cls-24" x="-44.52" y="351.45" width="5.27" height="145.55" transform="translate(-411.48 211.8) rotate(-65.75)"/>
                <rect class="cls-24" x="-48.29" y="359.83" width="5.27" height="145.55" transform="translate(-421.34 213.3) rotate(-65.75)"/>
                <rect class="cls-24" x="-52.05" y="368.2" width="5.27" height="145.55" transform="translate(-431.18 214.8) rotate(-65.75)"/>
                <rect class="cls-24" x="-55.83" y="376.57" width="5.27" height="145.55" transform="translate(-441.05 216.29) rotate(-65.75)"/>
                <rect class="cls-24" x="-59.6" y="384.95" width="5.27" height="145.55" transform="translate(-450.91 217.79) rotate(-65.75)"/>
                <rect class="cls-24" x="-63.38" y="393.32" width="5.27" height="145.55" transform="translate(-460.76 219.28) rotate(-65.75)"/>
                <rect class="cls-24" x="-67.14" y="401.69" width="5.27" height="145.55" transform="translate(-470.61 220.78) rotate(-65.75)"/>
              </g>
            </g>
          </g>
        </g>
      </g>
    </g>
  </g>
</svg>